# xmcd
#
# Track frame offsets:
#	182
#	11532
#	24757
#
# Disc length: 636 seconds
#
# Revision: 1
# Processed by: cddbd v1.4b42PL1 Copyright (c) Steve Scherf et al.
# Submitted via: audiograbber 1.80
#
DISCID=11027a03
DTITLE=Truck Stop - Groﬂstadtrevier (Maxi-CD)
DYEAR=1900
DGENRE=
TTITLE0=Groﬂstadtrevier
TTITLE1=Country Made in Germany
TTITLE2=Schmuse-Medley
EXTD=
EXTT0=
EXTT1=
EXTT2=
PLAYORDER=
